<svg width="0" height="0" class="hidden">
  <!-- <symbol viewBox="0 0 538 512" fill="none" xmlns="http://www.w3.org/2000/svg" id="menu">
      <g clip-path="url(#clip0_115266_8)">
      <path fill-rule="evenodd" clip-rule="evenodd" d="M483.84 435.43C483.84 449.536 470.579 460.8 455.757 460.8H375.117C371.749 460.879 368.4 460.28 365.269 459.037C362.138 457.794 359.29 455.933 356.894 453.565C354.497 451.198 352.602 448.372 351.322 445.256C350.041 442.14 349.401 438.799 349.44 435.43V358.63C349.389 355.237 350.017 351.868 351.287 348.721C352.557 345.574 354.444 342.713 356.837 340.306C359.229 337.899 362.079 335.995 365.218 334.706C368.358 333.417 371.723 332.769 375.117 332.8H455.757C470.605 332.8 483.84 344.525 483.84 358.63V435.43ZM455.757 281.6H375.117C330.573 281.6 295.68 316.211 295.68 358.63V435.43C295.68 477.85 330.573 512 375.117 512H455.757C500.301 512 537.6 477.85 537.6 435.43V358.63C537.6 316.211 500.301 281.6 455.757 281.6ZM188.16 435.43C188.16 449.536 174.899 460.8 160.077 460.8H79.4368C76.0691 460.879 72.72 460.28 69.5891 459.037C66.4583 457.794 63.6098 455.933 61.2135 453.565C58.8173 451.198 56.9224 448.372 55.6418 445.256C54.3612 442.14 53.7213 438.799 53.76 435.43V358.63C53.7086 355.237 54.3366 351.868 55.6068 348.721C56.8771 345.574 58.764 342.713 61.1566 340.306C63.5491 337.899 66.399 335.995 69.5383 334.706C72.6777 333.417 76.0432 332.769 79.4368 332.8H160.077C174.925 332.8 188.16 344.525 188.16 358.63V435.43ZM160.077 281.6H79.4368C34.8928 281.6 0 316.211 0 358.63V435.43C0 477.85 34.8928 512 79.4368 512H160.077C204.621 512 241.92 477.85 241.92 435.43V358.63C241.92 316.211 204.621 281.6 160.077 281.6ZM483.84 153.83C483.84 167.936 470.579 179.2 455.757 179.2H375.117C371.749 179.279 368.4 178.68 365.269 177.437C362.138 176.194 359.29 174.333 356.894 171.965C354.497 169.598 352.602 166.772 351.322 163.656C350.041 160.54 349.401 157.199 349.44 153.83V77.0304C349.389 73.6371 350.017 70.2678 351.287 67.1208C352.557 63.9737 354.444 61.1126 356.837 58.7057C359.229 56.2989 362.079 54.3949 365.218 53.1059C368.358 51.8169 371.723 51.1689 375.117 51.2H455.757C470.605 51.2 483.84 62.9248 483.84 77.0304V153.83ZM455.757 0H375.117C330.573 0 295.68 34.6112 295.68 77.0304V153.83C295.68 196.25 330.573 230.4 375.117 230.4H455.757C500.301 230.4 537.6 196.25 537.6 153.83V77.0304C537.6 34.6112 500.301 0 455.757 0ZM188.16 153.83C188.16 167.936 174.899 179.2 160.077 179.2H79.4368C76.0691 179.279 72.72 178.68 69.5891 177.437C66.4583 176.194 63.6098 174.333 61.2135 171.965C58.8173 169.598 56.9224 166.772 55.6418 163.656C54.3612 160.54 53.7213 157.199 53.76 153.83V77.0304C53.7086 73.6371 54.3366 70.2678 55.6068 67.1208C56.8771 63.9737 58.764 61.1126 61.1566 58.7057C63.5491 56.2989 66.399 54.3949 69.5383 53.1059C72.6777 51.8169 76.0432 51.1689 79.4368 51.2H160.077C174.925 51.2 188.16 62.9248 188.16 77.0304V153.83ZM160.077 0H79.4368C34.8928 0 0 34.6112 0 77.0304V153.83C0 196.25 34.8928 230.4 79.4368 230.4H160.077C204.621 230.4 241.92 196.25 241.92 153.83V77.0304C241.92 34.6112 204.621 0 160.077 0Z" fill="#292e33"/>
      </g>
      <defs>
      <clipPath id="clip0_115266_8">
      <rect width="537.6" height="512" fill="white"/>
      </clipPath>
      </defs>
  </symbol> -->

  <symbol viewBox="0 0 20 20" xmlns="http://www.w3.org/2000/svg" id="tg">
    <path fill-rule="evenodd" clip-rule="evenodd" d="M16.4809 3.69164C16.6868 3.60496 16.9122 3.57507 17.1336 3.60507C17.355 3.63507 17.5643 3.72386 17.7398 3.86221C17.9152 4.00056 18.0504 4.1834 18.1312 4.39171C18.212 4.60001 18.2355 4.82617 18.1992 5.04664L16.3092 16.5108C16.1259 17.6166 14.9125 18.2508 13.8984 17.7C13.05 17.2391 11.79 16.5291 10.6567 15.7883C10.09 15.4175 8.3542 14.23 8.56754 13.385C8.75087 12.6625 11.6675 9.94747 13.3342 8.3333C13.9884 7.69914 13.69 7.3333 12.9175 7.91664C10.9992 9.36497 7.9192 11.5675 6.90087 12.1875C6.00254 12.7341 5.5342 12.8275 4.9742 12.7341C3.95254 12.5641 3.00504 12.3008 2.2317 11.98C1.1867 11.5466 1.23754 10.11 2.23087 9.69164L16.4809 3.69164Z" />
  </symbol>


  <symbol viewBox="0 0 306 306" xmlns="http://www.w3.org/2000/svg" id="vk">
    <path fill-rule="evenodd" clip-rule="evenodd" d="M146.995 219.767H158.985C158.985 219.767 162.607 219.369 164.456 217.376C166.158 215.546 166.103 212.109 166.103 212.109C166.103 212.109 165.869 196.021 173.336 193.651C180.697 191.318 190.149 209.201 200.168 216.077C207.744 221.281 213.501 220.14 213.501 220.14L240.289 219.767C240.289 219.767 254.302 218.904 247.657 207.886C247.113 206.984 243.788 199.735 227.74 184.839C210.943 169.249 213.193 171.771 233.426 144.803C245.749 128.379 250.675 118.353 249.136 114.058C247.668 109.968 238.606 111.049 238.606 111.049L208.444 111.237C208.444 111.237 206.208 110.932 204.549 111.923C202.929 112.895 201.886 115.161 201.886 115.161C201.886 115.161 197.112 127.87 190.746 138.678C177.315 161.485 171.945 162.689 169.75 161.273C164.644 157.972 165.918 148.014 165.918 140.939C165.918 118.837 169.27 109.622 159.391 107.237C156.112 106.444 153.699 105.921 145.315 105.837C134.553 105.725 125.443 105.869 120.286 108.397C116.855 110.077 114.208 113.821 115.82 114.036C117.813 114.303 122.328 115.254 124.722 118.513C127.813 122.718 127.704 132.162 127.704 132.162C127.704 132.162 129.479 158.179 123.556 161.412C119.491 163.628 113.914 159.102 101.94 138.412C95.8043 127.813 91.1722 116.098 91.1722 116.098C91.1722 116.098 90.279 113.908 88.6859 112.737C86.7524 111.319 84.051 110.867 84.051 110.867L55.3895 111.054C55.3895 111.054 51.0868 111.174 49.5074 113.045C48.1022 114.709 49.3957 118.151 49.3957 118.151C49.3957 118.151 71.8348 170.649 97.2421 197.104C120.539 221.36 146.995 219.767 146.995 219.767Z"/>
  </symbol>

  <symbol viewBox="0 0 20 20" fill="none" xmlns="http://www.w3.org/2000/svg" id="calendar">
    <path d="M5.8335 9.1665H7.50016V10.8332H5.8335V9.1665ZM5.8335 12.4998H7.50016V14.1665H5.8335V12.4998ZM9.16683 9.1665H10.8335V10.8332H9.16683V9.1665ZM9.16683 12.4998H10.8335V14.1665H9.16683V12.4998ZM12.5002 9.1665H14.1668V10.8332H12.5002V9.1665ZM12.5002 12.4998H14.1668V14.1665H12.5002V12.4998Z" fill="#00abf0"/>
    <path d="M4.16667 18.3332H15.8333C16.7525 18.3332 17.5 17.5857 17.5 16.6665V4.99984C17.5 4.08067 16.7525 3.33317 15.8333 3.33317H14.1667V1.6665H12.5V3.33317H7.5V1.6665H5.83333V3.33317H4.16667C3.2475 3.33317 2.5 4.08067 2.5 4.99984V16.6665C2.5 17.5857 3.2475 18.3332 4.16667 18.3332ZM15.8333 6.6665L15.8342 16.6665H4.16667V6.6665H15.8333Z" fill="#00abf0"/>
  </symbol>

  <symbol viewBox="0 0 527 443" xmlns="http://www.w3.org/2000/svg" id="next">
    <path d="M284.709 432.485C290.855 438.595 299.168 442.025 307.835 442.025C316.496 442.025 324.809 438.595 330.956 432.485L516.612 247.157C522.819 240.998 526.31 232.612 526.31 223.866C526.31 215.12 522.819 206.74 516.612 200.582L330.956 15.2538C325.682 6.92255 316.942 1.41101 307.159 0.233032C297.369 -0.938843 287.573 2.35095 280.474 9.19299C273.382 16.035 269.738 25.7086 270.562 35.5352C271.38 45.3558 276.574 54.2914 284.71 59.8633L414.27 191.059L32.8008 191.059C21.082 191.059 10.2539 197.315 4.39453 207.459C-1.46484 217.609 -1.46484 230.115 4.39453 240.259C10.2539 250.409 21.082 256.659 32.8008 256.659H414.27L284.71 386.224C278.6 392.364 275.17 400.677 275.17 409.345C275.17 418.012 278.6 426.324 284.71 432.471L284.709 432.485Z"/>
  </symbol>

  <symbol viewBox="0 0 527 443" xmlns="http://www.w3.org/2000/svg" id="prev">
    <path d="M241.602 9.53984C235.456 3.43015 227.143 0 218.475 0C209.814 0 201.502 3.43015 195.355 9.53984L9.69867 194.868C3.49133 201.026 0.000183105 209.413 0.000183105 218.159C0.000183105 226.905 3.49152 235.285 9.69867 241.443L195.355 426.771C200.628 435.102 209.369 440.614 219.152 441.792C228.942 442.964 238.738 439.674 245.836 432.832C252.929 425.99 256.572 416.316 255.748 406.49C254.931 396.669 249.736 387.733 241.6 382.162L112.041 250.966L493.51 250.966C505.229 250.966 516.057 244.71 521.916 234.566C527.775 224.416 527.775 211.91 521.916 201.766C516.057 191.616 505.229 185.366 493.51 185.366L112.041 185.366L241.6 55.8006C247.71 49.6605 251.14 41.3475 251.14 32.6803C251.14 24.0133 247.71 15.7006 241.6 9.55377L241.602 9.53984Z" />
  </symbol>


  <symbol viewBox="0 0 20 20" xmlns="http://www.w3.org/2000/svg" id="code">
    <path d="M10.7419 2.5L12.3752 2.83333L9.25856 17.5L7.62523 17.1667L10.7419 2.5ZM16.3252 10L13.3336 7.00833V4.65L18.6836 10L13.3336 15.3417V12.9833L16.3252 10ZM1.31689 10L6.66689 4.65V7.00833L3.67523 10L6.66689 12.9833V15.3417L1.31689 10Z"/>
  </symbol>

  <symbol viewBox="0 0 20 20" xmlns="http://www.w3.org/2000/svg" id="paint">
    <path d="M5.88395 18.3336C7.15312 18.3336 8.25062 17.8811 9.14228 16.9894C10.0781 16.0536 10.5648 14.6111 10.4348 13.2444L17.5715 6.10773C18.0586 5.61953 18.3321 4.95791 18.3318 4.26822C18.3315 3.57852 18.0574 2.91715 17.5698 2.42939C16.5881 1.44606 14.8748 1.44606 13.8931 2.42939L6.48978 9.83273C4.89562 9.97356 3.31728 11.1002 3.31728 13.0986C3.31728 13.3511 3.33478 13.5886 3.35228 13.8152C3.41895 14.6744 3.44312 14.9969 2.12645 15.6552C1.99693 15.7199 1.88651 15.8173 1.80605 15.9376C1.72559 16.058 1.67788 16.1972 1.66762 16.3417C1.65736 16.4861 1.6849 16.6307 1.74753 16.7612C1.81016 16.8917 1.90572 17.0037 2.02478 17.0861C2.09978 17.1361 3.85228 18.3336 5.88395 18.3336C5.88284 18.3336 5.88284 18.3336 5.88395 18.3336ZM15.0715 3.60689C15.2493 3.43632 15.4862 3.34121 15.7326 3.34152C15.979 3.34183 16.2157 3.43754 16.3931 3.60856C16.4798 3.69523 16.5486 3.79812 16.5955 3.91137C16.6424 4.02461 16.6665 4.14599 16.6665 4.26856C16.6665 4.39114 16.6424 4.51251 16.5955 4.62575C16.5486 4.739 16.4798 4.84189 16.3931 4.92856L9.99978 11.3219L8.67812 10.0002L15.0715 3.60689ZM5.01478 13.6861C4.99978 13.4994 4.98395 13.3044 4.98395 13.0977C4.98395 11.8102 6.18812 11.4702 6.82562 11.4702C7.12228 11.4702 7.40812 11.5311 7.62895 11.6419C8.41645 12.0377 8.67895 12.7194 8.75978 13.2219C8.90728 14.1302 8.57895 15.1952 7.96312 15.8111C7.38728 16.3869 6.70728 16.6669 5.88395 16.6669C5.25895 16.6669 4.65062 16.5036 4.15478 16.3111C5.05645 15.5002 5.08895 14.6536 5.01478 13.6861Z"/>
  </symbol>

  <symbol viewBox="0 0 20 20" xmlns="http://www.w3.org/2000/svg" id="chart">
    <path d="M16.6668 11.4582C16.6668 11.2924 16.601 11.1334 16.4838 11.0162C16.3666 10.899 16.2076 10.8332 16.0418 10.8332H13.5418C13.3761 10.8332 13.2171 10.899 13.0999 11.0162C12.9827 11.1334 12.9168 11.2924 12.9168 11.4582V17.0832H11.6668V3.5415C11.6668 2.93484 11.6652 2.5415 11.6268 2.25317C11.5902 1.98234 11.531 1.89734 11.4835 1.84984C11.436 1.80234 11.351 1.74317 11.0802 1.7065C10.791 1.66817 10.3985 1.6665 9.79183 1.6665C9.18516 1.6665 8.79183 1.66817 8.5035 1.7065C8.23266 1.74317 8.14766 1.80234 8.10016 1.84984C8.05266 1.89734 7.9935 1.98234 7.95683 2.25317C7.9185 2.54234 7.91683 2.93484 7.91683 3.5415V17.0832H6.66683V7.2915C6.66683 7.12574 6.60098 6.96677 6.48377 6.84956C6.36656 6.73235 6.20759 6.6665 6.04183 6.6665H3.54183C3.37607 6.6665 3.2171 6.73235 3.09989 6.84956C2.98268 6.96677 2.91683 7.12574 2.91683 7.2915V17.0832H1.4585C1.29274 17.0832 1.13376 17.149 1.01655 17.2662C0.899344 17.3834 0.833496 17.5424 0.833496 17.7082C0.833496 17.8739 0.899344 18.0329 1.01655 18.1501C1.13376 18.2673 1.29274 18.3332 1.4585 18.3332H18.1252C18.2909 18.3332 18.4499 18.2673 18.5671 18.1501C18.6843 18.0329 18.7502 17.8739 18.7502 17.7082C18.7502 17.5424 18.6843 17.3834 18.5671 17.2662C18.4499 17.149 18.2909 17.0832 18.1252 17.0832H16.6668V11.4582Z"/>
  </symbol>

  <symbol viewBox="0 0 20 20" fill="none" xmlns="http://www.w3.org/2000/svg" id="html">
    <path d="M2.5 2.5L3.75 16.25L10 17.5L16.25 16.25L17.5 2.5H2.5ZM14.825 6.875H7.05L7.23125 8.75H14.6438L14.1425 14.5844L9.99375 15.625L5.84687 14.5963L5.58125 11.875H7.46875L7.5875 13.125L10 13.6063L12.4 13.125L12.5812 10.625H5.525L5 5H15L14.825 6.875Z" fill="#E65100"/>
  </symbol>


  <symbol viewBox="0 0 20 20" fill="none" xmlns="http://www.w3.org/2000/svg" id="css">
    <g clip-path="url(#clip0_115397_10)">
    <path d="M9.98788 19.9493L1.85851 18.347L0.046875 3.92041H19.9532L18.1397 18.3448L9.98788 19.9493Z" fill="#264DE4"/>
    <path d="M16.5871 17.4264L18.1368 5.1001H10V18.723L16.5871 17.4264Z" fill="#2965F1"/>
    <path d="M4.19981 10.4508L4.42313 12.2202H9.99989V10.4508H4.19981ZM3.75098 6.86963L3.9775 8.63899H9.99989V6.86963H3.75098ZM9.99989 15.0461L9.98897 15.0481L7.21358 14.5161L7.03614 13.1049H4.53448L4.88359 15.8831L9.98842 16.8892L9.99989 16.887V15.0461Z" fill="#EBEBEB"/>
    <path d="M4.73193 0H7.75015V0.896177H5.99416V1.79235H7.75031V2.68848H4.73193V0ZM8.35388 0H11.3722V0.77928H9.6161V0.935125H11.3722V2.72748H8.35395V1.90914H10.11V1.7533H8.3538L8.35388 0ZM11.9759 0H14.9942V0.77928H13.2381V0.935125H14.9942V2.72748H11.9759V1.90914H13.732V1.7533H11.976L11.9759 0Z" fill="black"/>
    <path d="M15.784 10.4508L16.2339 6.86963H9.99129V8.63899H13.5028L13.2761 10.4508H9.99129V12.2202H13.06L12.7707 14.5149L9.99121 15.0476V16.8884L15.1001 15.8831L15.1376 15.5841L15.7233 10.926L15.784 10.4508Z" fill="white"/>
    </g>
    <defs>
    <clipPath id="clip0_115397_10">
    <rect width="20" height="20" fill="white"/>
    </clipPath>
    </defs>
  </symbol>

</svg>