<svg width="0" height="0" class="hidden">
  <!-- <symbol viewBox="0 0 538 512" fill="none" xmlns="http://www.w3.org/2000/svg" id="menu">
      <g clip-path="url(#clip0_115266_8)">
      <path fill-rule="evenodd" clip-rule="evenodd" d="M483.84 435.43C483.84 449.536 470.579 460.8 455.757 460.8H375.117C371.749 460.879 368.4 460.28 365.269 459.037C362.138 457.794 359.29 455.933 356.894 453.565C354.497 451.198 352.602 448.372 351.322 445.256C350.041 442.14 349.401 438.799 349.44 435.43V358.63C349.389 355.237 350.017 351.868 351.287 348.721C352.557 345.574 354.444 342.713 356.837 340.306C359.229 337.899 362.079 335.995 365.218 334.706C368.358 333.417 371.723 332.769 375.117 332.8H455.757C470.605 332.8 483.84 344.525 483.84 358.63V435.43ZM455.757 281.6H375.117C330.573 281.6 295.68 316.211 295.68 358.63V435.43C295.68 477.85 330.573 512 375.117 512H455.757C500.301 512 537.6 477.85 537.6 435.43V358.63C537.6 316.211 500.301 281.6 455.757 281.6ZM188.16 435.43C188.16 449.536 174.899 460.8 160.077 460.8H79.4368C76.0691 460.879 72.72 460.28 69.5891 459.037C66.4583 457.794 63.6098 455.933 61.2135 453.565C58.8173 451.198 56.9224 448.372 55.6418 445.256C54.3612 442.14 53.7213 438.799 53.76 435.43V358.63C53.7086 355.237 54.3366 351.868 55.6068 348.721C56.8771 345.574 58.764 342.713 61.1566 340.306C63.5491 337.899 66.399 335.995 69.5383 334.706C72.6777 333.417 76.0432 332.769 79.4368 332.8H160.077C174.925 332.8 188.16 344.525 188.16 358.63V435.43ZM160.077 281.6H79.4368C34.8928 281.6 0 316.211 0 358.63V435.43C0 477.85 34.8928 512 79.4368 512H160.077C204.621 512 241.92 477.85 241.92 435.43V358.63C241.92 316.211 204.621 281.6 160.077 281.6ZM483.84 153.83C483.84 167.936 470.579 179.2 455.757 179.2H375.117C371.749 179.279 368.4 178.68 365.269 177.437C362.138 176.194 359.29 174.333 356.894 171.965C354.497 169.598 352.602 166.772 351.322 163.656C350.041 160.54 349.401 157.199 349.44 153.83V77.0304C349.389 73.6371 350.017 70.2678 351.287 67.1208C352.557 63.9737 354.444 61.1126 356.837 58.7057C359.229 56.2989 362.079 54.3949 365.218 53.1059C368.358 51.8169 371.723 51.1689 375.117 51.2H455.757C470.605 51.2 483.84 62.9248 483.84 77.0304V153.83ZM455.757 0H375.117C330.573 0 295.68 34.6112 295.68 77.0304V153.83C295.68 196.25 330.573 230.4 375.117 230.4H455.757C500.301 230.4 537.6 196.25 537.6 153.83V77.0304C537.6 34.6112 500.301 0 455.757 0ZM188.16 153.83C188.16 167.936 174.899 179.2 160.077 179.2H79.4368C76.0691 179.279 72.72 178.68 69.5891 177.437C66.4583 176.194 63.6098 174.333 61.2135 171.965C58.8173 169.598 56.9224 166.772 55.6418 163.656C54.3612 160.54 53.7213 157.199 53.76 153.83V77.0304C53.7086 73.6371 54.3366 70.2678 55.6068 67.1208C56.8771 63.9737 58.764 61.1126 61.1566 58.7057C63.5491 56.2989 66.399 54.3949 69.5383 53.1059C72.6777 51.8169 76.0432 51.1689 79.4368 51.2H160.077C174.925 51.2 188.16 62.9248 188.16 77.0304V153.83ZM160.077 0H79.4368C34.8928 0 0 34.6112 0 77.0304V153.83C0 196.25 34.8928 230.4 79.4368 230.4H160.077C204.621 230.4 241.92 196.25 241.92 153.83V77.0304C241.92 34.6112 204.621 0 160.077 0Z" fill="#292e33"/>
      </g>
      <defs>
      <clipPath id="clip0_115266_8">
      <rect width="537.6" height="512" fill="white"/>
      </clipPath>
      </defs>
  </symbol> -->

  <symbol viewBox="0 0 20 20" xmlns="http://www.w3.org/2000/svg" id="tg">
    <path fill-rule="evenodd" clip-rule="evenodd" d="M16.4809 3.69164C16.6868 3.60496 16.9122 3.57507 17.1336 3.60507C17.355 3.63507 17.5643 3.72386 17.7398 3.86221C17.9152 4.00056 18.0504 4.1834 18.1312 4.39171C18.212 4.60001 18.2355 4.82617 18.1992 5.04664L16.3092 16.5108C16.1259 17.6166 14.9125 18.2508 13.8984 17.7C13.05 17.2391 11.79 16.5291 10.6567 15.7883C10.09 15.4175 8.3542 14.23 8.56754 13.385C8.75087 12.6625 11.6675 9.94747 13.3342 8.3333C13.9884 7.69914 13.69 7.3333 12.9175 7.91664C10.9992 9.36497 7.9192 11.5675 6.90087 12.1875C6.00254 12.7341 5.5342 12.8275 4.9742 12.7341C3.95254 12.5641 3.00504 12.3008 2.2317 11.98C1.1867 11.5466 1.23754 10.11 2.23087 9.69164L16.4809 3.69164Z" />
  </symbol>


  <symbol viewBox="0 0 306 306" xmlns="http://www.w3.org/2000/svg" id="vk">
    <path fill-rule="evenodd" clip-rule="evenodd" d="M146.995 219.767H158.985C158.985 219.767 162.607 219.369 164.456 217.376C166.158 215.546 166.103 212.109 166.103 212.109C166.103 212.109 165.869 196.021 173.336 193.651C180.697 191.318 190.149 209.201 200.168 216.077C207.744 221.281 213.501 220.14 213.501 220.14L240.289 219.767C240.289 219.767 254.302 218.904 247.657 207.886C247.113 206.984 243.788 199.735 227.74 184.839C210.943 169.249 213.193 171.771 233.426 144.803C245.749 128.379 250.675 118.353 249.136 114.058C247.668 109.968 238.606 111.049 238.606 111.049L208.444 111.237C208.444 111.237 206.208 110.932 204.549 111.923C202.929 112.895 201.886 115.161 201.886 115.161C201.886 115.161 197.112 127.87 190.746 138.678C177.315 161.485 171.945 162.689 169.75 161.273C164.644 157.972 165.918 148.014 165.918 140.939C165.918 118.837 169.27 109.622 159.391 107.237C156.112 106.444 153.699 105.921 145.315 105.837C134.553 105.725 125.443 105.869 120.286 108.397C116.855 110.077 114.208 113.821 115.82 114.036C117.813 114.303 122.328 115.254 124.722 118.513C127.813 122.718 127.704 132.162 127.704 132.162C127.704 132.162 129.479 158.179 123.556 161.412C119.491 163.628 113.914 159.102 101.94 138.412C95.8043 127.813 91.1722 116.098 91.1722 116.098C91.1722 116.098 90.279 113.908 88.6859 112.737C86.7524 111.319 84.051 110.867 84.051 110.867L55.3895 111.054C55.3895 111.054 51.0868 111.174 49.5074 113.045C48.1022 114.709 49.3957 118.151 49.3957 118.151C49.3957 118.151 71.8348 170.649 97.2421 197.104C120.539 221.36 146.995 219.767 146.995 219.767Z"/>
  </symbol>

  <symbol viewBox="0 0 20 20" fill="none" xmlns="http://www.w3.org/2000/svg" id="calendar">
    <path d="M5.8335 9.1665H7.50016V10.8332H5.8335V9.1665ZM5.8335 12.4998H7.50016V14.1665H5.8335V12.4998ZM9.16683 9.1665H10.8335V10.8332H9.16683V9.1665ZM9.16683 12.4998H10.8335V14.1665H9.16683V12.4998ZM12.5002 9.1665H14.1668V10.8332H12.5002V9.1665ZM12.5002 12.4998H14.1668V14.1665H12.5002V12.4998Z" fill="black"/>
    <path d="M4.16667 18.3332H15.8333C16.7525 18.3332 17.5 17.5857 17.5 16.6665V4.99984C17.5 4.08067 16.7525 3.33317 15.8333 3.33317H14.1667V1.6665H12.5V3.33317H7.5V1.6665H5.83333V3.33317H4.16667C3.2475 3.33317 2.5 4.08067 2.5 4.99984V16.6665C2.5 17.5857 3.2475 18.3332 4.16667 18.3332ZM15.8333 6.6665L15.8342 16.6665H4.16667V6.6665H15.8333Z" fill="black"/>
  </symbol>

</svg>