<svg width="0" height="0" class="hidden">
  <!-- <symbol viewBox="0 0 538 512" fill="none" xmlns="http://www.w3.org/2000/svg" id="menu">
      <g clip-path="url(#clip0_115266_8)">
      <path fill-rule="evenodd" clip-rule="evenodd" d="M483.84 435.43C483.84 449.536 470.579 460.8 455.757 460.8H375.117C371.749 460.879 368.4 460.28 365.269 459.037C362.138 457.794 359.29 455.933 356.894 453.565C354.497 451.198 352.602 448.372 351.322 445.256C350.041 442.14 349.401 438.799 349.44 435.43V358.63C349.389 355.237 350.017 351.868 351.287 348.721C352.557 345.574 354.444 342.713 356.837 340.306C359.229 337.899 362.079 335.995 365.218 334.706C368.358 333.417 371.723 332.769 375.117 332.8H455.757C470.605 332.8 483.84 344.525 483.84 358.63V435.43ZM455.757 281.6H375.117C330.573 281.6 295.68 316.211 295.68 358.63V435.43C295.68 477.85 330.573 512 375.117 512H455.757C500.301 512 537.6 477.85 537.6 435.43V358.63C537.6 316.211 500.301 281.6 455.757 281.6ZM188.16 435.43C188.16 449.536 174.899 460.8 160.077 460.8H79.4368C76.0691 460.879 72.72 460.28 69.5891 459.037C66.4583 457.794 63.6098 455.933 61.2135 453.565C58.8173 451.198 56.9224 448.372 55.6418 445.256C54.3612 442.14 53.7213 438.799 53.76 435.43V358.63C53.7086 355.237 54.3366 351.868 55.6068 348.721C56.8771 345.574 58.764 342.713 61.1566 340.306C63.5491 337.899 66.399 335.995 69.5383 334.706C72.6777 333.417 76.0432 332.769 79.4368 332.8H160.077C174.925 332.8 188.16 344.525 188.16 358.63V435.43ZM160.077 281.6H79.4368C34.8928 281.6 0 316.211 0 358.63V435.43C0 477.85 34.8928 512 79.4368 512H160.077C204.621 512 241.92 477.85 241.92 435.43V358.63C241.92 316.211 204.621 281.6 160.077 281.6ZM483.84 153.83C483.84 167.936 470.579 179.2 455.757 179.2H375.117C371.749 179.279 368.4 178.68 365.269 177.437C362.138 176.194 359.29 174.333 356.894 171.965C354.497 169.598 352.602 166.772 351.322 163.656C350.041 160.54 349.401 157.199 349.44 153.83V77.0304C349.389 73.6371 350.017 70.2678 351.287 67.1208C352.557 63.9737 354.444 61.1126 356.837 58.7057C359.229 56.2989 362.079 54.3949 365.218 53.1059C368.358 51.8169 371.723 51.1689 375.117 51.2H455.757C470.605 51.2 483.84 62.9248 483.84 77.0304V153.83ZM455.757 0H375.117C330.573 0 295.68 34.6112 295.68 77.0304V153.83C295.68 196.25 330.573 230.4 375.117 230.4H455.757C500.301 230.4 537.6 196.25 537.6 153.83V77.0304C537.6 34.6112 500.301 0 455.757 0ZM188.16 153.83C188.16 167.936 174.899 179.2 160.077 179.2H79.4368C76.0691 179.279 72.72 178.68 69.5891 177.437C66.4583 176.194 63.6098 174.333 61.2135 171.965C58.8173 169.598 56.9224 166.772 55.6418 163.656C54.3612 160.54 53.7213 157.199 53.76 153.83V77.0304C53.7086 73.6371 54.3366 70.2678 55.6068 67.1208C56.8771 63.9737 58.764 61.1126 61.1566 58.7057C63.5491 56.2989 66.399 54.3949 69.5383 53.1059C72.6777 51.8169 76.0432 51.1689 79.4368 51.2H160.077C174.925 51.2 188.16 62.9248 188.16 77.0304V153.83ZM160.077 0H79.4368C34.8928 0 0 34.6112 0 77.0304V153.83C0 196.25 34.8928 230.4 79.4368 230.4H160.077C204.621 230.4 241.92 196.25 241.92 153.83V77.0304C241.92 34.6112 204.621 0 160.077 0Z" fill="#292e33"/>
      </g>
      <defs>
      <clipPath id="clip0_115266_8">
      <rect width="537.6" height="512" fill="white"/>
      </clipPath>
      </defs>
  </symbol> -->

  <symbol viewBox="0 0 20 20" xmlns="http://www.w3.org/2000/svg" id="tg">
    <path fill-rule="evenodd" clip-rule="evenodd" d="M16.4809 3.69164C16.6868 3.60496 16.9122 3.57507 17.1336 3.60507C17.355 3.63507 17.5643 3.72386 17.7398 3.86221C17.9152 4.00056 18.0504 4.1834 18.1312 4.39171C18.212 4.60001 18.2355 4.82617 18.1992 5.04664L16.3092 16.5108C16.1259 17.6166 14.9125 18.2508 13.8984 17.7C13.05 17.2391 11.79 16.5291 10.6567 15.7883C10.09 15.4175 8.3542 14.23 8.56754 13.385C8.75087 12.6625 11.6675 9.94747 13.3342 8.3333C13.9884 7.69914 13.69 7.3333 12.9175 7.91664C10.9992 9.36497 7.9192 11.5675 6.90087 12.1875C6.00254 12.7341 5.5342 12.8275 4.9742 12.7341C3.95254 12.5641 3.00504 12.3008 2.2317 11.98C1.1867 11.5466 1.23754 10.11 2.23087 9.69164L16.4809 3.69164Z" />
  </symbol>


  <symbol viewBox="0 0 306 306" xmlns="http://www.w3.org/2000/svg" id="vk">
    <path fill-rule="evenodd" clip-rule="evenodd" d="M146.995 219.767H158.985C158.985 219.767 162.607 219.369 164.456 217.376C166.158 215.546 166.103 212.109 166.103 212.109C166.103 212.109 165.869 196.021 173.336 193.651C180.697 191.318 190.149 209.201 200.168 216.077C207.744 221.281 213.501 220.14 213.501 220.14L240.289 219.767C240.289 219.767 254.302 218.904 247.657 207.886C247.113 206.984 243.788 199.735 227.74 184.839C210.943 169.249 213.193 171.771 233.426 144.803C245.749 128.379 250.675 118.353 249.136 114.058C247.668 109.968 238.606 111.049 238.606 111.049L208.444 111.237C208.444 111.237 206.208 110.932 204.549 111.923C202.929 112.895 201.886 115.161 201.886 115.161C201.886 115.161 197.112 127.87 190.746 138.678C177.315 161.485 171.945 162.689 169.75 161.273C164.644 157.972 165.918 148.014 165.918 140.939C165.918 118.837 169.27 109.622 159.391 107.237C156.112 106.444 153.699 105.921 145.315 105.837C134.553 105.725 125.443 105.869 120.286 108.397C116.855 110.077 114.208 113.821 115.82 114.036C117.813 114.303 122.328 115.254 124.722 118.513C127.813 122.718 127.704 132.162 127.704 132.162C127.704 132.162 129.479 158.179 123.556 161.412C119.491 163.628 113.914 159.102 101.94 138.412C95.8043 127.813 91.1722 116.098 91.1722 116.098C91.1722 116.098 90.279 113.908 88.6859 112.737C86.7524 111.319 84.051 110.867 84.051 110.867L55.3895 111.054C55.3895 111.054 51.0868 111.174 49.5074 113.045C48.1022 114.709 49.3957 118.151 49.3957 118.151C49.3957 118.151 71.8348 170.649 97.2421 197.104C120.539 221.36 146.995 219.767 146.995 219.767Z"/>
  </symbol>

  <symbol viewBox="0 0 20 20" fill="none" xmlns="http://www.w3.org/2000/svg" id="calendar">
    <path d="M5.8335 9.1665H7.50016V10.8332H5.8335V9.1665ZM5.8335 12.4998H7.50016V14.1665H5.8335V12.4998ZM9.16683 9.1665H10.8335V10.8332H9.16683V9.1665ZM9.16683 12.4998H10.8335V14.1665H9.16683V12.4998ZM12.5002 9.1665H14.1668V10.8332H12.5002V9.1665ZM12.5002 12.4998H14.1668V14.1665H12.5002V12.4998Z" fill="#00abf0"/>
    <path d="M4.16667 18.3332H15.8333C16.7525 18.3332 17.5 17.5857 17.5 16.6665V4.99984C17.5 4.08067 16.7525 3.33317 15.8333 3.33317H14.1667V1.6665H12.5V3.33317H7.5V1.6665H5.83333V3.33317H4.16667C3.2475 3.33317 2.5 4.08067 2.5 4.99984V16.6665C2.5 17.5857 3.2475 18.3332 4.16667 18.3332ZM15.8333 6.6665L15.8342 16.6665H4.16667V6.6665H15.8333Z" fill="#00abf0"/>
  </symbol>

  <symbol viewBox="0 0 527 443" xmlns="http://www.w3.org/2000/svg" id="next">
    <path d="M284.709 432.485C290.855 438.595 299.168 442.025 307.835 442.025C316.496 442.025 324.809 438.595 330.956 432.485L516.612 247.157C522.819 240.998 526.31 232.612 526.31 223.866C526.31 215.12 522.819 206.74 516.612 200.582L330.956 15.2538C325.682 6.92255 316.942 1.41101 307.159 0.233032C297.369 -0.938843 287.573 2.35095 280.474 9.19299C273.382 16.035 269.738 25.7086 270.562 35.5352C271.38 45.3558 276.574 54.2914 284.71 59.8633L414.27 191.059L32.8008 191.059C21.082 191.059 10.2539 197.315 4.39453 207.459C-1.46484 217.609 -1.46484 230.115 4.39453 240.259C10.2539 250.409 21.082 256.659 32.8008 256.659H414.27L284.71 386.224C278.6 392.364 275.17 400.677 275.17 409.345C275.17 418.012 278.6 426.324 284.71 432.471L284.709 432.485Z"/>
  </symbol>

  <symbol viewBox="0 0 527 443" xmlns="http://www.w3.org/2000/svg" id="prev">
    <path d="M241.602 9.53984C235.456 3.43015 227.143 0 218.475 0C209.814 0 201.502 3.43015 195.355 9.53984L9.69867 194.868C3.49133 201.026 0.000183105 209.413 0.000183105 218.159C0.000183105 226.905 3.49152 235.285 9.69867 241.443L195.355 426.771C200.628 435.102 209.369 440.614 219.152 441.792C228.942 442.964 238.738 439.674 245.836 432.832C252.929 425.99 256.572 416.316 255.748 406.49C254.931 396.669 249.736 387.733 241.6 382.162L112.041 250.966L493.51 250.966C505.229 250.966 516.057 244.71 521.916 234.566C527.775 224.416 527.775 211.91 521.916 201.766C516.057 191.616 505.229 185.366 493.51 185.366L112.041 185.366L241.6 55.8006C247.71 49.6605 251.14 41.3475 251.14 32.6803C251.14 24.0133 247.71 15.7006 241.6 9.55377L241.602 9.53984Z" />
  </symbol>


  <symbol viewBox="0 0 20 20" xmlns="http://www.w3.org/2000/svg" id="code">
    <path d="M10.7419 2.5L12.3752 2.83333L9.25856 17.5L7.62523 17.1667L10.7419 2.5ZM16.3252 10L13.3336 7.00833V4.65L18.6836 10L13.3336 15.3417V12.9833L16.3252 10ZM1.31689 10L6.66689 4.65V7.00833L3.67523 10L6.66689 12.9833V15.3417L1.31689 10Z"/>
  </symbol>

  <symbol viewBox="0 0 20 20" xmlns="http://www.w3.org/2000/svg" id="paint">
    <path d="M5.88395 18.3336C7.15312 18.3336 8.25062 17.8811 9.14228 16.9894C10.0781 16.0536 10.5648 14.6111 10.4348 13.2444L17.5715 6.10773C18.0586 5.61953 18.3321 4.95791 18.3318 4.26822C18.3315 3.57852 18.0574 2.91715 17.5698 2.42939C16.5881 1.44606 14.8748 1.44606 13.8931 2.42939L6.48978 9.83273C4.89562 9.97356 3.31728 11.1002 3.31728 13.0986C3.31728 13.3511 3.33478 13.5886 3.35228 13.8152C3.41895 14.6744 3.44312 14.9969 2.12645 15.6552C1.99693 15.7199 1.88651 15.8173 1.80605 15.9376C1.72559 16.058 1.67788 16.1972 1.66762 16.3417C1.65736 16.4861 1.6849 16.6307 1.74753 16.7612C1.81016 16.8917 1.90572 17.0037 2.02478 17.0861C2.09978 17.1361 3.85228 18.3336 5.88395 18.3336C5.88284 18.3336 5.88284 18.3336 5.88395 18.3336ZM15.0715 3.60689C15.2493 3.43632 15.4862 3.34121 15.7326 3.34152C15.979 3.34183 16.2157 3.43754 16.3931 3.60856C16.4798 3.69523 16.5486 3.79812 16.5955 3.91137C16.6424 4.02461 16.6665 4.14599 16.6665 4.26856C16.6665 4.39114 16.6424 4.51251 16.5955 4.62575C16.5486 4.739 16.4798 4.84189 16.3931 4.92856L9.99978 11.3219L8.67812 10.0002L15.0715 3.60689ZM5.01478 13.6861C4.99978 13.4994 4.98395 13.3044 4.98395 13.0977C4.98395 11.8102 6.18812 11.4702 6.82562 11.4702C7.12228 11.4702 7.40812 11.5311 7.62895 11.6419C8.41645 12.0377 8.67895 12.7194 8.75978 13.2219C8.90728 14.1302 8.57895 15.1952 7.96312 15.8111C7.38728 16.3869 6.70728 16.6669 5.88395 16.6669C5.25895 16.6669 4.65062 16.5036 4.15478 16.3111C5.05645 15.5002 5.08895 14.6536 5.01478 13.6861Z"/>
  </symbol>

  <symbol viewBox="0 0 20 20" xmlns="http://www.w3.org/2000/svg" id="chart">
    <path d="M16.6668 11.4582C16.6668 11.2924 16.601 11.1334 16.4838 11.0162C16.3666 10.899 16.2076 10.8332 16.0418 10.8332H13.5418C13.3761 10.8332 13.2171 10.899 13.0999 11.0162C12.9827 11.1334 12.9168 11.2924 12.9168 11.4582V17.0832H11.6668V3.5415C11.6668 2.93484 11.6652 2.5415 11.6268 2.25317C11.5902 1.98234 11.531 1.89734 11.4835 1.84984C11.436 1.80234 11.351 1.74317 11.0802 1.7065C10.791 1.66817 10.3985 1.6665 9.79183 1.6665C9.18516 1.6665 8.79183 1.66817 8.5035 1.7065C8.23266 1.74317 8.14766 1.80234 8.10016 1.84984C8.05266 1.89734 7.9935 1.98234 7.95683 2.25317C7.9185 2.54234 7.91683 2.93484 7.91683 3.5415V17.0832H6.66683V7.2915C6.66683 7.12574 6.60098 6.96677 6.48377 6.84956C6.36656 6.73235 6.20759 6.6665 6.04183 6.6665H3.54183C3.37607 6.6665 3.2171 6.73235 3.09989 6.84956C2.98268 6.96677 2.91683 7.12574 2.91683 7.2915V17.0832H1.4585C1.29274 17.0832 1.13376 17.149 1.01655 17.2662C0.899344 17.3834 0.833496 17.5424 0.833496 17.7082C0.833496 17.8739 0.899344 18.0329 1.01655 18.1501C1.13376 18.2673 1.29274 18.3332 1.4585 18.3332H18.1252C18.2909 18.3332 18.4499 18.2673 18.5671 18.1501C18.6843 18.0329 18.7502 17.8739 18.7502 17.7082C18.7502 17.5424 18.6843 17.3834 18.5671 17.2662C18.4499 17.149 18.2909 17.0832 18.1252 17.0832H16.6668V11.4582Z"/>
  </symbol>

  <symbol viewBox="0 0 15 17" xmlns="http://www.w3.org/2000/svg" id="html">
    <path d="M0 0L1.315 14.8533L7.5 16.6667L13.7225 14.8542L15 0H0ZM11.7075 5.04H5.0625L5.20583 6.72H11.62L11.0983 12.1908L7.56 13.3417L3.9925 12.1292L3.7525 9.68583H5.43917L5.5725 10.8617L7.5725 11.5408L9.5275 10.905L9.775 8.40083H3.68L3.21167 3.35917H11.8883L11.7075 5.04Z"/>
  </symbol>

  <symbol viewBox="0 0 15 17" xmlns="http://www.w3.org/2000/svg" id="css">
    <path d="M0 0L1.315 14.8617L7.5 16.6667L13.7233 14.8625L15 0H0ZM11.0833 12.2683L7.50583 13.2717H7.5L3.91917 12.2683L3.67167 9.62917H5.42833L5.55333 10.9008L7.49917 11.4333L9.44917 10.9L9.65333 8.35833H3.595L3.43917 6.68667H9.80583L9.95083 5.015H3.27L3.12333 3.34333H11.8783L11.0833 12.2683Z"/>
  </symbol>

  <symbol viewBox="0 0 18 18" xmlns="http://www.w3.org/2000/svg" id="js">
    <path d="M0 0V17.5H17.5V0H0ZM9.52375 13.6481C9.52375 15.3512 8.52375 16.1287 7.06688 16.1287C5.75063 16.1287 4.98875 15.4494 4.59813 14.625L5.93813 13.8163C6.19625 14.2731 6.43062 14.66 6.99687 14.66C7.53562 14.66 7.87938 14.4487 7.87938 13.625V8.035H9.52375V13.6481ZM13.4137 16.1287C11.8862 16.1287 10.8981 15.4025 10.4175 14.4488L11.7575 13.6756C12.1094 14.25 12.57 14.6756 13.3788 14.6756C14.0581 14.6756 14.4963 14.3356 14.4963 13.8631C14.4963 13.3006 14.0506 13.1012 13.2969 12.7694L12.8869 12.5937C11.6994 12.09 10.9144 11.4531 10.9144 10.1131C10.9144 8.87875 11.8556 7.94125 13.3206 7.94125C14.3675 7.94125 15.1175 8.30438 15.6569 9.2575L14.3756 10.0781C14.0944 9.57438 13.7894 9.375 13.3169 9.375C12.8369 9.375 12.5319 9.68 12.5319 10.0781C12.5319 10.5706 12.8369 10.7694 13.5438 11.0781L13.9538 11.2538C15.3525 11.8513 16.1375 12.465 16.1375 13.8394C16.1375 15.3162 14.9731 16.1281 13.4144 16.1281L13.4137 16.1287Z"/>
  </symbol>

  <symbol viewBox="0 0 20 20" xmlns="http://www.w3.org/2000/svg" id="python">
    <g clip-path="url(#clip0_115398_22)">
      <mask id="mask0_115398_22" style="mask-type:luminance" maskUnits="userSpaceOnUse" x="0" y="0" width="20" height="20">
        <path d="M0 0H20V20H0V0Z" fill="white"/>
      </mask>
      <g mask="url(#mask0_115398_22)">
        <path d="M9.92833 0C4.85 0 5.16667 2.21333 5.16667 2.21333L5.1725 4.50667H10.0175V5.195H3.25C3.25 5.195 0 4.82417 0 9.97417C0 15.1242 2.83583 14.9408 2.83583 14.9408H4.5275V12.5517C4.5275 12.5517 4.43667 9.70167 7.31917 9.70167H12.1242C12.1242 9.70167 14.8242 9.745 14.8242 7.07833V2.66833C14.8242 2.66833 15.2342 0 9.92833 0ZM7.25667 1.54167C7.73833 1.54167 8.12833 1.93333 8.12833 2.41833C8.12833 2.9025 7.73833 3.29417 7.25667 3.29417C6.775 3.29417 6.385 2.9025 6.385 2.41833C6.385 1.93333 6.77417 1.54167 7.25667 1.54167Z"/>
        <path d="M10.0726 20.0002C15.1493 20.0002 14.8326 17.7869 14.8326 17.7869L14.8268 15.4936H9.98178V14.8052H16.7509C16.7509 14.8052 20.0009 15.1761 20.0009 10.0261C20.0009 4.87607 17.1643 5.0594 17.1643 5.0594H15.4726V7.44857C15.4726 7.44857 15.5634 10.2986 12.6809 10.2986H7.87678C7.87678 10.2986 5.17678 10.2552 5.17678 12.9219V17.3319C5.17678 17.3319 4.76678 20.0002 10.0726 20.0002ZM12.7443 18.4586C12.2618 18.4586 11.8726 18.0669 11.8726 17.5819C11.8726 17.0977 12.2618 16.7061 12.7443 16.7061C13.2259 16.7061 13.6159 17.0977 13.6159 17.5819C13.6159 18.0669 13.2259 18.4586 12.7443 18.4586Z"/>
      </g>
    </g>
    <defs>
      <clipPath id="clip0_115398_22">
        <rect width="20" height="20" fill="white"/>
      </clipPath>
    </defs>
  </symbol>

  <symbol viewBox="0 0 20 20" xmlns="http://www.w3.org/2000/svg" id="dj">
    <g clip-path="url(#clip0_115398_30)">
      <path fill-rule="evenodd" clip-rule="evenodd" d="M12.6432 0H9.16317V4.94333C8.66785 4.82374 8.15931 4.76774 7.64984 4.77667C4.01317 4.77583 1.6665 6.92083 1.6665 10.2275C1.6665 13.6592 3.879 15.4467 8.129 15.4508C9.54817 15.4508 10.8607 15.3258 12.6432 15.0092V0ZM8.1115 7.48083C8.5415 7.48083 8.87817 7.5225 9.28484 7.6475V12.8542C8.78817 12.9167 8.47484 12.9375 8.08984 12.9375C6.3065 12.9375 5.33567 11.9858 5.33567 10.2625C5.33567 8.49167 6.35234 7.48083 8.1115 7.48083Z"/>
      <path d="M18.3335 12.6942V5.17917H14.8585V11.575C14.8585 14.3975 14.7019 15.47 14.2044 16.3967C13.7294 17.3025 12.986 17.8967 11.4502 18.5683L14.6794 20C16.2152 19.2817 16.9585 18.6308 17.5227 17.6C18.1277 16.5267 18.3335 15.2817 18.3335 12.6942ZM17.9877 0H14.5077V3.3275H17.9877V0Z"/>
    </g>
    <defs>
      <clipPath id="clip0_115398_30">
        <rect width="20" height="20" fill="white"/>
      </clipPath>
    </defs>
  </symbol>

  <symbol viewBox="0 0 20 20" xmlns="http://www.w3.org/2000/svg" id="fast">
    <g clip-path="url(#clip0_115398_33)">
      <path d="M8.87703 19.9353C8.57969 19.8999 8.26781 19.8541 8.18422 19.8335C8.0612 19.8043 7.93746 19.7783 7.81312 19.7553C7.67112 19.7278 7.53024 19.6948 7.39078 19.6564C6.74312 19.4708 6.69672 19.4557 6.20844 19.256C5.75922 19.0728 4.93156 18.645 4.64844 18.4503C4.57094 18.3966 4.49844 18.3533 4.48734 18.3533C4.47625 18.3533 4.29516 18.2258 4.08453 18.07C2.74547 17.0789 1.74016 15.8758 1.01375 14.3939C0.88875 14.1394 0.786719 13.9136 0.786719 13.8924C0.786719 13.8714 0.764219 13.8135 0.736719 13.7647C0.68 13.6633 0.599219 13.4449 0.534062 13.2191C0.506059 13.1232 0.473469 13.0286 0.436406 12.9358C0.405937 12.8639 0.381406 12.7764 0.381406 12.7411C0.381406 12.7057 0.350937 12.5904 0.31375 12.4841C0.276562 12.3786 0.246562 12.2541 0.246562 12.2075C0.246562 12.1613 0.217344 12.0013 0.18125 11.8519C0.0934375 11.4832 0 10.528 0 9.99269C0 9.45801 0.0934375 8.50285 0.18125 8.13426C0.217187 7.98473 0.246562 7.82176 0.246562 7.77176C0.246562 7.7216 0.269219 7.62332 0.296562 7.55301C0.324687 7.48301 0.360625 7.35723 0.377187 7.27363C0.394375 7.19004 0.433437 7.04598 0.465156 6.95254L0.557344 6.68285C0.625 6.48082 0.687812 6.30988 0.717812 6.24332C0.735 6.20613 0.802031 6.05426 0.867344 5.90582C0.972969 5.66598 1.19937 5.21363 1.33172 4.97691C1.38 4.89019 1.39828 4.86144 1.65953 4.45316C2.07344 3.80504 2.78078 2.99863 3.43922 2.42379C3.67125 2.22113 4.44641 1.6327 4.48125 1.6327C4.49094 1.6327 4.56406 1.58879 4.64422 1.53504C4.85469 1.3941 5.06109 1.27441 5.33016 1.13957C5.42674 1.09181 5.52238 1.04216 5.61703 0.990664C5.66156 0.965039 5.74516 0.926601 6.17437 0.734414C6.26891 0.692226 6.37078 0.653789 6.66437 0.551133C6.72906 0.528633 6.85906 0.480977 6.95187 0.446133C7.04531 0.411445 7.15516 0.382695 7.19609 0.382695C7.23641 0.382695 7.3425 0.35457 7.43172 0.319883C7.52078 0.285039 7.6825 0.245352 7.79172 0.231914C7.90047 0.219102 8.045 0.188633 8.11281 0.164727C8.18 0.141602 8.36437 0.111602 8.52234 0.0983203C8.72822 0.0796861 8.93356 0.0554584 9.13812 0.0256641C9.55812 -0.0358984 10.4712 -0.0358984 10.8869 0.0256641C11.0832 0.0538363 11.2802 0.0770209 11.4777 0.0951953C11.6266 0.107539 11.8164 0.138633 11.9 0.164258C11.9836 0.189258 12.1283 0.220508 12.2211 0.231914C12.3139 0.244258 12.4702 0.282695 12.5683 0.318008C12.6667 0.353945 12.7783 0.382695 12.8167 0.382695C12.8552 0.382695 12.9345 0.404102 12.9925 0.430977C13.0511 0.457227 13.175 0.501133 13.2684 0.528633C13.3612 0.556758 13.5205 0.612226 13.6231 0.653164C13.725 0.693945 13.8617 0.747695 13.927 0.77207C14.0473 0.817383 14.9364 1.26223 15.0573 1.33801C16.0387 1.95004 16.5436 2.34988 17.2223 3.05113C18.0408 3.89707 18.5841 4.70269 19.137 5.88863C19.1761 5.97238 19.2358 6.09629 19.27 6.16332C19.3036 6.23113 19.3317 6.31051 19.3317 6.33988C19.3317 6.36957 19.3598 6.45863 19.3945 6.53816C19.4886 6.75426 19.5691 7.00019 19.607 7.18816C19.6258 7.28035 19.6606 7.39441 19.6844 7.44144C19.7083 7.48832 19.7362 7.60754 19.7473 7.70519C19.7583 7.80269 19.7906 7.96269 19.8181 8.05973C19.9775 8.61144 20.0567 10.2369 19.9603 10.9558C19.9317 11.1694 19.8994 11.4277 19.8884 11.5296C19.87 11.7041 19.7778 12.1552 19.6991 12.4585L19.6178 12.7796C19.4647 13.3979 19.0862 14.2786 18.6242 15.0935C18.4411 15.4169 17.8272 16.2916 17.7112 16.3941C17.7008 16.4032 17.6489 16.4644 17.5964 16.5289C17.5439 16.5943 17.3755 16.7768 17.223 16.9343C16.5509 17.6282 16.0089 18.0572 15.0573 18.6482C14.9445 18.7183 13.9875 19.1858 13.8086 19.2585C13.7158 19.2957 13.5608 19.3585 13.4644 19.3975C13.3686 19.4361 13.2617 19.4685 13.2281 19.4691C13.1945 19.4696 13.1061 19.4996 13.0316 19.5355C12.9572 19.5714 12.8625 19.6014 12.8205 19.6021C12.7789 19.6027 12.6575 19.6321 12.5506 19.6674C12.4439 19.7033 12.2955 19.7419 12.2209 19.7533C12.1466 19.765 11.9873 19.7968 11.8664 19.8236C11.7456 19.8505 11.3805 19.903 11.0559 19.9402C10.332 20.0247 9.60059 20.0231 8.87703 19.9353ZM9.61187 17.9822C9.65875 17.9457 9.70703 17.8728 9.71984 17.8218C9.74797 17.7088 14.2877 8.60769 14.3731 8.49363C14.4452 8.39723 14.4519 8.24285 14.3859 8.18848C14.3512 8.15926 13.9166 8.15004 12.7562 8.15191C11.8859 8.15379 11.1542 8.15441 11.1303 8.15379C11.095 8.15254 11.0877 7.57098 11.0912 5.08004C11.0937 3.38988 11.0858 1.9916 11.0736 1.97223C11.0614 1.95254 11.0137 1.93676 10.9673 1.93676C10.902 1.93676 10.8716 1.96488 10.8314 2.06301C10.7556 2.24551 10.5462 2.65988 9.52703 4.63879C9.31532 5.04946 9.10412 5.4604 8.89344 5.8716C8.71281 6.22504 8.42781 6.77988 8.26109 7.10441C7.81234 7.9768 7.36453 8.84966 6.91766 9.72301C6.14687 11.2286 6.05359 11.4082 6.02047 11.4479C5.95641 11.5254 5.92156 11.7041 5.95766 11.7713C5.99047 11.8329 6.05594 11.8354 7.68312 11.8329C8.61328 11.8318 9.38047 11.8366 9.38844 11.8438C9.40984 11.8658 9.40187 17.6735 9.37984 17.8119C9.36531 17.9029 9.375 17.951 9.41656 17.9925C9.48844 18.0646 9.50812 18.0639 9.61187 17.9822Z" />
    </g>
    <defs>
      <clipPath id="clip0_115398_33">
        <rect width="20" height="20" fill="white"/>
      </clipPath>
    </defs>
  </symbol>

  <symbol viewBox="0 0 20 20" xmlns="http://www.w3.org/2000/svg" id="figma">
    <path fill-rule="evenodd" clip-rule="evenodd" d="M7.22253 7.84734C6.93986 7.84734 6.65995 7.90301 6.3988 8.01119C6.13765 8.11936 5.90036 8.27791 5.70048 8.47779C5.5006 8.67767 5.34205 8.91496 5.23388 9.17611C5.1257 9.43726 5.07003 9.71717 5.07003 9.99984C5.07003 10.2825 5.1257 10.5624 5.23388 10.8236C5.34205 11.0847 5.5006 11.322 5.70048 11.5219C5.90036 11.7218 6.13765 11.8803 6.3988 11.9885C6.65995 12.0967 6.93986 12.1523 7.22253 12.1523H9.37503V7.84734H7.22253ZM9.37503 6.59734H7.22253C6.65154 6.59734 6.10394 6.37051 5.70018 5.96676C5.29643 5.56301 5.06961 5.01541 5.06961 4.44442C5.06961 3.87343 5.29643 3.32583 5.70018 2.92208C6.10394 2.51833 6.65154 2.2915 7.22253 2.2915H9.37503V6.59734ZM10.625 2.2915V6.59734H12.7775C13.3412 6.58625 13.878 6.35455 14.2727 5.95201C14.6674 5.54946 14.8885 5.00818 14.8885 4.44442C14.8885 3.88066 14.6674 3.33938 14.2727 2.93683C13.878 2.53429 13.3412 2.30259 12.7775 2.2915H10.625ZM12.7775 7.8465C12.2125 7.84643 11.6701 8.06852 11.2674 8.46483C10.8647 8.86114 10.634 9.3999 10.625 9.96484V10.034C10.6319 10.4582 10.764 10.8708 11.0047 11.2202C11.2454 11.5695 11.5839 11.84 11.9778 11.9975C12.3716 12.1551 12.8033 12.1928 13.2185 12.1058C13.6337 12.0188 14.014 11.8111 14.3115 11.5087C14.6091 11.2063 14.8106 10.8228 14.8909 10.4062C14.9711 9.98967 14.9265 9.55868 14.7626 9.1674C14.5987 8.77611 14.3229 8.44198 13.9697 8.20698C13.6165 7.97197 13.2017 7.84656 12.7775 7.8465ZM7.22253 13.4023C6.7966 13.4022 6.3802 13.5283 6.02597 13.7648C5.67175 14.0013 5.39562 14.3376 5.23251 14.731C5.0694 15.1245 5.02664 15.5575 5.10963 15.9753C5.19263 16.393 5.39765 16.7768 5.69876 17.078C5.99988 17.3792 6.38356 17.5844 6.80129 17.6676C7.21902 17.7507 7.65203 17.7081 8.04555 17.5452C8.43907 17.3822 8.77542 17.1062 9.01207 16.7521C9.24872 16.398 9.37503 15.9816 9.37503 15.5557V13.4023H7.22253Z"/>
  </symbol>

  <symbol viewBox="0 0 20 20" fill="none" xmlns="http://www.w3.org/2000/svg" id="link">
    <path d="M11.25 8.75L17.5 2.5M17.5 2.5H13.3333M17.5 2.5V6.66667M17.5 11.6667V15.8333C17.5 16.2754 17.3244 16.6993 17.0118 17.0118C16.6993 17.3244 16.2754 17.5 15.8333 17.5H4.16667C3.72464 17.5 3.30072 17.3244 2.98816 17.0118C2.67559 16.6993 2.5 16.2754 2.5 15.8333V4.16667C2.5 3.72464 2.67559 3.30072 2.98816 2.98816C3.30072 2.67559 3.72464 2.5 4.16667 2.5H8.33333" stroke="black" stroke-linecap="round" stroke-linejoin="round"/>
  </symbol>

  <symbol viewBox="0 0 20 20" fill="none" xmlns="http://www.w3.org/2000/svg" id="user">
    <path d="M10.0002 3.3335C10.8842 3.3335 11.7321 3.68469 12.3572 4.30981C12.9823 4.93493 13.3335 5.78277 13.3335 6.66683C13.3335 7.55088 12.9823 8.39873 12.3572 9.02385C11.7321 9.64897 10.8842 10.0002 10.0002 10.0002C9.11611 10.0002 8.26826 9.64897 7.64314 9.02385C7.01802 8.39873 6.66683 7.55088 6.66683 6.66683C6.66683 5.78277 7.01802 4.93493 7.64314 4.30981C8.26826 3.68469 9.11611 3.3335 10.0002 3.3335ZM10.0002 11.6668C13.6835 11.6668 16.6668 13.1585 16.6668 15.0002V16.6668H3.3335V15.0002C3.3335 13.1585 6.31683 11.6668 10.0002 11.6668Z" fill="black"/>
  </symbol>

</svg>